<svg width="185" height="184" viewBox="0 0 185 184" fill="none" xmlns="http://www.w3.org/2000/svg">
<path d="M184.165 92.2906C184.165 75.0688 170.204 61.1078 152.982 61.1078L123.892 31.5993C123.892 14.3775 109.931 0.416504 92.7091 0.416504C75.4874 0.416504 61.5264 14.3775 61.5264 31.5993L32.0178 61.1078C14.7961 61.1078 0.835083 75.0688 0.835083 92.2906C0.835083 109.512 14.7961 123.473 32.0178 123.473L61.5264 152.563C61.5264 169.785 75.4874 183.746 92.7091 183.746C109.931 183.746 123.892 169.785 123.892 152.563L152.982 123.473C170.204 123.473 184.165 109.512 184.165 92.2906Z" fill="#F4F2DF"/>
</svg>
