<svg width="200" height="200" viewBox="0 0 702 702" fill="none" xmlns="http://www.w3.org/2000/svg">
<path d="M702 351.801C702 285.856 648.541 232.397 582.596 232.397L471.206 119.404C471.206 53.4591 417.746 5.7651e-06 351.801 0C285.856 -5.7651e-06 232.397 53.459 232.397 119.404L119.404 232.397C53.459 232.397 2.88255e-06 285.856 0 351.801C-2.88255e-06 417.747 53.459 471.206 119.404 471.206L232.397 582.596C232.397 648.541 285.856 702 351.801 702C417.747 702 471.206 648.541 471.206 582.596L582.596 471.206C648.541 471.206 702 417.746 702 351.801Z" fill="url(#paint0_radial_617_1951)"/>
<path d="M540.752 254.947L541.729 255.937H543.119C595.988 255.937 638.847 298.796 638.847 351.664C638.847 404.533 595.988 447.392 543.119 447.392H541.743L540.769 448.365L448.366 540.769L447.392 541.742V543.119C447.392 595.988 404.534 638.846 351.665 638.846C298.796 638.846 255.938 595.988 255.938 543.119V541.728L254.947 540.752L161.214 448.348L160.244 447.392H158.881C106.012 447.392 63.1535 404.533 63.1535 351.664C63.1535 298.796 106.012 255.937 158.881 255.937H160.258L161.231 254.964L254.964 161.231L255.938 160.257V158.88C255.938 106.012 298.796 63.153 351.665 63.153C404.534 63.153 447.392 106.012 447.392 158.88V160.243L448.349 161.214L540.752 254.947Z" fill="#F2F2E9" stroke="#E5E5DC" stroke-width="6.64773"/>
<defs>
<radialGradient id="paint0_radial_617_1951" cx="0" cy="0" r="1" gradientUnits="userSpaceOnUse" gradientTransform="translate(351 351) rotate(90) scale(351)">
<stop stop-color="#FFFFCA"/>
<stop offset="1" stop-color="#FFFFCA" stop-opacity="0"/>
</radialGradient>
</defs>
</svg>
