<svg width="221" height="221" viewBox="0 0 221 221" fill="none" xmlns="http://www.w3.org/2000/svg">
<g filter="url(#filter0_i_1203_519)">
<path d="M221 110.752C221 89.9918 204.17 73.1621 183.41 73.1621L148.342 37.5902C148.342 16.8297 131.513 0 110.752 0C89.9918 0 73.1621 16.8297 73.1621 37.5902L37.5902 73.1621C16.8297 73.1621 0 89.9918 0 110.752C0 131.513 16.8297 148.342 37.5902 148.342L73.1621 183.41C73.1621 204.17 89.9918 221 110.752 221C131.513 221 148.342 204.17 148.342 183.41L183.41 148.342C204.17 148.342 221 131.513 221 110.752Z" fill="url(#grad)"/>
</g>
<defs>
<filter id="filter0_i_1203_519" x="0" y="0" width="221" height="221" filterUnits="userSpaceOnUse" color-interpolation-filters="sRGB">
<feFlood flood-opacity="0" result="BackgroundImageFix"/>
<feBlend mode="normal" in="SourceGraphic" in2="BackgroundImageFix" result="shape"/>
<feColorMatrix in="SourceAlpha" type="matrix" values="0 0 0 0 0 0 0 0 0 0 0 0 0 0 0 0 0 0 127 0" result="hardAlpha"/>
<feOffset/>
<feGaussianBlur stdDeviation="7"/>
<feComposite in2="hardAlpha" operator="arithmetic" k2="-1" k3="1"/>
<feColorMatrix type="matrix" values="0 0 0 0 1 0 0 0 0 1 0 0 0 0 1 0 0 0 0.75 0"/>
<feBlend mode="normal" in2="shape" result="effect1_innerShadow_1203_519"/>
</filter>
<linearGradient id="grad" x1="111" y1="111" x2="0" y2="111" gradientUnits="userSpaceOnUse">
  <stop stop-color="#EDD76C" stop-opacity="0.1"/>
  <stop id="opacity" offset="0.5" stop-color="#EDD76C" stop-opacity="0.1"/>
  <stop offset="1" stop-color="#EDD76C"/>
</linearGradient>
</defs>
</svg>
