<svg width="27" height="27" viewBox="0 0 27 27" fill="none" xmlns="http://www.w3.org/2000/svg">
<path d="M21.0338 0.741245C21.0677 0.614335 21.1263 0.495357 21.2063 0.391109C21.2862 0.286861 21.3859 0.199386 21.4997 0.133684C21.6134 0.0679807 21.739 0.0253372 21.8693 0.00818936C21.9995 -0.00895845 22.1319 -0.000274386 22.2588 0.0337454C24.2463 0.567495 25.8838 1.7975 26.8663 3.5C26.9989 3.72974 27.0348 4.00275 26.9661 4.25897C26.8974 4.51519 26.7298 4.73364 26.5 4.86624C26.2703 4.99885 25.9973 5.03476 25.741 4.96608C25.4848 4.89739 25.2664 4.72974 25.1338 4.49999C24.4188 3.26 23.2138 2.36 21.7413 1.96625C21.6143 1.9323 21.4954 1.87368 21.3911 1.79374C21.2869 1.7138 21.1994 1.6141 21.1337 1.50033C21.068 1.38657 21.0253 1.26098 21.0082 1.13073C20.9911 1.00049 20.9997 0.868136 21.0338 0.741245ZM7.94751 25.215C6.77501 24.29 5.79501 23.11 4.86626 21.5C4.8006 21.3862 4.71317 21.2865 4.60898 21.2066C4.50478 21.1266 4.38585 21.0679 4.25899 21.0339C4.13212 20.9999 3.99979 20.9912 3.86957 21.0083C3.73934 21.0255 3.61377 21.0681 3.50001 21.1337C3.38625 21.1994 3.28654 21.2868 3.20657 21.391C3.1266 21.4952 3.06793 21.6141 3.03392 21.741C2.99991 21.8679 2.99123 22.0002 3.00836 22.1304C3.02549 22.2607 3.0681 22.3862 3.13376 22.5C4.19501 24.3375 5.33001 25.6987 6.70876 26.785C6.91728 26.9454 7.18063 27.0172 7.44172 26.9848C7.70282 26.9524 7.94062 26.8184 8.10359 26.6118C8.26656 26.4053 8.34156 26.1428 8.31235 25.8814C8.28313 25.6199 8.15205 25.3805 7.94751 25.215ZM22.5238 4.30249C22.3942 4.07163 22.2201 3.86878 22.0116 3.7057C21.8031 3.54262 21.5643 3.42256 21.309 3.35248C21.0537 3.2824 20.7871 3.2637 20.5245 3.29745C20.262 3.3312 20.0087 3.41675 19.7795 3.54912C19.5502 3.68149 19.3495 3.85805 19.189 4.06857C19.0285 4.27909 18.9114 4.51938 18.8445 4.7755C18.7776 5.03162 18.7622 5.29848 18.7992 5.5606C18.8362 5.82272 18.9248 6.0749 19.06 6.30249L21.06 9.76624C21.1257 9.88 21.1683 10.0056 21.1855 10.1358C21.2026 10.266 21.1939 10.3984 21.1599 10.5252C21.1259 10.6521 21.0672 10.771 20.9872 10.8752C20.9073 10.9794 20.8075 11.0669 20.6938 11.1325C19.7752 11.663 19.1049 12.5366 18.8304 13.5612C18.5559 14.5859 18.6997 15.6776 19.23 16.5962C19.3626 16.826 19.3985 17.099 19.3298 17.3552C19.2612 17.6114 19.0935 17.8299 18.8638 17.9625C18.634 18.0951 18.361 18.131 18.1048 18.0623C17.8486 17.9936 17.6301 17.826 17.4975 17.5962C16.7902 16.3674 16.5403 14.9279 16.7919 13.5325C17.0435 12.1371 17.7805 10.8757 18.8725 9.97124L13.8288 1.24C13.5635 0.780508 13.1267 0.445197 12.6142 0.307826C12.1018 0.170456 11.5557 0.242279 11.0963 0.507495C10.6368 0.772712 10.3015 1.2096 10.1641 1.72204C10.0267 2.23448 10.0985 2.78051 10.3638 3.24L14.3638 10.1687C14.4881 10.3978 14.5182 10.6664 14.4475 10.9173C14.3767 11.1681 14.2108 11.3815 13.9851 11.5119C13.7594 11.6422 13.4917 11.6793 13.2391 11.6152C12.9864 11.5512 12.7688 11.3909 12.6325 11.1687L7.63251 2.5075C7.36729 2.04801 6.93041 1.7127 6.41796 1.57533C5.90552 1.43796 5.3595 1.50978 4.90001 1.775C4.44052 2.04021 4.10521 2.4771 3.96784 2.98954C3.83047 3.50198 3.90229 4.04801 4.16751 4.5075L9.66751 14.0337C9.73732 14.1476 9.78363 14.2742 9.8037 14.4063C9.82377 14.5383 9.81719 14.673 9.78435 14.8024C9.75152 14.9319 9.69309 15.0534 9.61252 15.1599C9.53195 15.2664 9.43086 15.3557 9.31523 15.4225C9.19959 15.4893 9.07175 15.5322 8.93925 15.5488C8.80674 15.5654 8.67226 15.5553 8.54373 15.519C8.4152 15.4828 8.29523 15.4212 8.1909 15.3378C8.08656 15.2545 7.99998 15.1511 7.93626 15.0337L4.43626 8.97249C4.30494 8.74498 4.13009 8.54556 3.9217 8.38562C3.7133 8.22567 3.47545 8.10834 3.22171 8.04033C2.96798 7.97231 2.70333 7.95493 2.44288 7.98919C2.18243 8.02345 1.93127 8.10867 1.70376 8.23999C1.47624 8.37132 1.27682 8.54616 1.11688 8.75456C0.956938 8.96295 0.839608 9.2008 0.771589 9.45454C0.70357 9.70828 0.686194 9.97292 0.720453 10.2334C0.754713 10.4938 0.839937 10.745 0.971258 10.9725L6.47126 20.4987C7.93333 23.0186 10.3353 24.8555 13.1501 25.6065C15.9649 26.3575 18.9627 25.9611 21.4857 24.5045C24.0086 23.0479 25.8507 20.6499 26.6078 17.8367C27.3648 15.0235 26.975 12.0248 25.5238 9.49874L22.5238 4.30249Z" fill="#343330"/>
</svg>
