<svg width="20" height="22" viewBox="0 0 20 22" fill="none" xmlns="http://www.w3.org/2000/svg">
<path d="M19.5266 15.8689C18.9629 14.898 18.125 12.1507 18.125 8.5625C18.125 6.40762 17.269 4.34099 15.7453 2.81726C14.2216 1.29352 12.1549 0.4375 10 0.4375C7.84516 0.4375 5.77853 1.29352 4.2548 2.81726C2.73107 4.34099 1.87504 6.40762 1.87504 8.5625C1.87504 12.1517 1.03614 14.898 0.472465 15.8689C0.328521 16.1157 0.252211 16.3962 0.25123 16.6819C0.250249 16.9677 0.324632 17.2486 0.466878 17.4964C0.609124 17.7443 0.814202 17.9502 1.06143 18.0935C1.30866 18.2367 1.5893 18.3123 1.87504 18.3125H6.01981C6.20727 19.2298 6.70579 20.0541 7.43105 20.6462C8.15632 21.2382 9.06382 21.5616 10 21.5616C10.9363 21.5616 11.8438 21.2382 12.569 20.6462C13.2943 20.0541 13.7928 19.2298 13.9803 18.3125H18.125C18.4107 18.3121 18.6912 18.2364 18.9383 18.0931C19.1854 17.9497 19.3903 17.7438 19.5324 17.496C19.6746 17.2482 19.7489 16.9673 19.7478 16.6817C19.7468 16.396 19.6705 16.1157 19.5266 15.8689ZM10 19.9375C9.49611 19.9373 9.00461 19.781 8.5932 19.49C8.18178 19.199 7.87068 18.7876 7.7027 18.3125H12.2974C12.1294 18.7876 11.8183 19.199 11.4069 19.49C10.9955 19.781 10.504 19.9373 10 19.9375Z" fill="#353506"/>
</svg>
