<svg width="17" height="17" viewBox="0 0 17 17" fill="none" xmlns="http://www.w3.org/2000/svg">
<path d="M8.5 6.61111C8.93409 6.61111 9.36393 6.52561 9.76498 6.35949C10.166 6.19337 10.5304 5.94988 10.8374 5.64294C11.1443 5.33599 11.3878 4.97159 11.5539 4.57054C11.7201 4.16949 11.8056 3.73965 11.8056 3.30556C11.8056 2.87146 11.7201 2.44162 11.5539 2.04057C11.3878 1.63953 11.1443 1.27512 10.8374 0.968175C10.5304 0.661226 10.166 0.41774 9.76498 0.25162C9.36393 0.0855006 8.93409 -9.1478e-09 8.5 0C7.62331 1.84748e-08 6.78253 0.348263 6.16262 0.968175C5.54271 1.58809 5.19444 2.42887 5.19444 3.30556C5.19444 4.18224 5.54271 5.02302 6.16262 5.64294C6.78253 6.26285 7.62331 6.61111 8.5 6.61111ZM0 16.4333V17H17V16.4333C17 14.3178 17 13.26 16.5882 12.4516C16.226 11.7408 15.6481 11.1628 14.9373 10.8007C14.1289 10.3889 13.0711 10.3889 10.9556 10.3889H6.04444C3.92889 10.3889 2.87111 10.3889 2.06267 10.8007C1.35186 11.1628 0.773961 11.7408 0.411778 12.4516C2.08616e-07 13.26 0 14.3178 0 16.4333Z" fill="#83837D"/>
</svg>
