<svg width="174" height="174" viewBox="0 0 611 611" fill="none" xmlns="http://www.w3.org/2000/svg">
<path d="M603.655 306.166C603.655 248.667 557.796 201.879 500.658 200.384L411.949 110.398C410.482 53.2344 363.683 7.34475 306.166 7.34475C248.657 7.34474 201.864 53.2194 200.383 110.37L110.37 200.383C53.2194 201.864 7.34475 248.657 7.34475 306.166C7.34475 363.683 53.2344 410.482 110.398 411.949L200.384 500.658C201.879 557.796 248.667 603.655 306.166 603.655C363.674 603.655 410.467 557.781 411.948 500.63L500.63 411.948C557.781 410.467 603.655 363.674 603.655 306.166Z" stroke="#FFF" stroke-width="13.3105"/>
</svg>
