<svg width="22" height="20" viewBox="0 0 22 20" fill="none" xmlns="http://www.w3.org/2000/svg">
<path d="M21.3068 8.05092C21.2859 7.9453 21.2425 7.84543 21.1796 7.75807C21.1167 7.67072 21.0357 7.59793 20.9421 7.54467L18.1456 5.95092L18.1343 2.79904C18.134 2.69049 18.1101 2.58331 18.0643 2.4849C18.0185 2.38649 17.9518 2.29919 17.869 2.22904C16.8546 1.37095 15.6864 0.713356 14.4265 0.291232C14.3273 0.257651 14.2221 0.245223 14.1178 0.25475C14.0135 0.264276 13.9124 0.295546 13.8209 0.346545L10.9999 1.92342L8.17618 0.343732C8.08464 0.292446 7.98335 0.260941 7.87887 0.251251C7.77439 0.241562 7.66904 0.253905 7.56962 0.287482C6.31053 0.712317 5.1436 1.37246 4.13087 2.23279C4.04815 2.30284 3.9816 2.38999 3.9358 2.48823C3.89 2.58647 3.86603 2.69347 3.86556 2.80186L3.8515 5.95654L1.05493 7.55029C0.961373 7.60356 0.880376 7.67634 0.817448 7.7637C0.75452 7.85105 0.711137 7.95093 0.690247 8.05654C0.434306 9.34268 0.434306 10.6667 0.690247 11.9528C0.711137 12.0584 0.75452 12.1583 0.817448 12.2456C0.880376 12.333 0.961373 12.4058 1.05493 12.459L3.8515 14.0528L3.86275 17.2056C3.86309 17.3142 3.88699 17.4213 3.93279 17.5197C3.9786 17.6182 4.04522 17.7055 4.12806 17.7756C5.1425 18.6337 6.31071 19.2913 7.57056 19.7134C7.66977 19.747 7.77492 19.7594 7.87923 19.7499C7.98354 19.7404 8.08469 19.7091 8.17618 19.6581L10.9999 18.0765L13.8237 19.6562C13.9354 19.7185 14.0614 19.7508 14.1893 19.75C14.2712 19.75 14.3526 19.7367 14.4302 19.7106C15.689 19.286 16.8559 18.6265 17.869 17.7672C17.9517 17.6971 18.0183 17.61 18.0641 17.5117C18.1099 17.4135 18.1338 17.3065 18.1343 17.1981L18.1484 14.0434L20.9449 12.4497C21.0385 12.3964 21.1195 12.3236 21.1824 12.2363C21.2453 12.1489 21.2887 12.049 21.3096 11.9434C21.5641 10.6583 21.5632 9.33566 21.3068 8.05092ZM10.9999 13.75C10.2583 13.75 9.53323 13.53 8.91655 13.118C8.29986 12.7059 7.81921 12.1203 7.53539 11.435C7.25156 10.7498 7.17729 9.99582 7.32199 9.26839C7.46668 8.54096 7.82384 7.87278 8.34828 7.34833C8.87273 6.82388 9.54092 6.46673 10.2683 6.32204C10.9958 6.17734 11.7498 6.2516 12.435 6.53543C13.1202 6.81926 13.7059 7.29991 14.1179 7.91659C14.53 8.53328 14.7499 9.2583 14.7499 9.99998C14.7499 10.9945 14.3548 11.9484 13.6516 12.6516C12.9483 13.3549 11.9945 13.75 10.9999 13.75Z" fill="#353506"/>
</svg>
