<svg width="13" height="14" viewBox="0 0 13 14" fill="none" xmlns="http://www.w3.org/2000/svg">
    <path
        d="M12.25 11.5C12.2501 11.8284 12.1782 12.1528 12.0396 12.4505C11.9009 12.7482 11.6987 13.0119 11.4472 13.2231C11.1958 13.4344 10.9011 13.588 10.584 13.6732C10.2668 13.7584 9.93485 13.7732 9.61138 13.7165C9.28792 13.6598 8.98079 13.5329 8.71157 13.3448C8.44234 13.1568 8.21755 12.9121 8.05297 12.6279C7.8884 12.3437 7.78803 12.0269 7.75891 11.6998C7.72979 11.3727 7.77263 11.0432 7.88442 10.7344L4.57192 8.60626C4.25555 8.91659 3.85459 9.12658 3.41933 9.20989C2.98407 9.2932 2.5339 9.24613 2.12529 9.07456C1.71669 8.903 1.36784 8.6146 1.12252 8.24553C0.877206 7.87646 0.746338 7.44317 0.746338 7.00001C0.746338 6.55685 0.877206 6.12356 1.12252 5.75449C1.36784 5.38542 1.71669 5.09702 2.12529 4.92545C2.5339 4.75389 2.98407 4.70682 3.41933 4.79013C3.85459 4.87344 4.25555 5.08343 4.57192 5.39376L7.88442 3.26876C7.69474 2.74754 7.70375 2.1747 7.90974 1.65971C8.11573 1.14471 8.50425 0.723668 9.00106 0.477029C9.49787 0.230391 10.0681 0.175451 10.6029 0.322708C11.1377 0.469965 11.5994 0.809093 11.8999 1.27529C12.2004 1.74149 12.3186 2.30207 12.232 2.84992C12.1453 3.39776 11.8598 3.89446 11.43 4.24511C11.0002 4.59575 10.4563 4.77575 9.90223 4.75071C9.34814 4.72568 8.82269 4.49736 8.4263 4.10939L5.1138 6.23751C5.29282 6.73223 5.29282 7.27404 5.1138 7.76876L8.4263 9.89688C8.74256 9.58736 9.14308 9.37797 9.57774 9.29491C10.0124 9.21185 10.4619 9.25881 10.87 9.42991C11.2781 9.60101 11.6267 9.88866 11.8722 10.2569C12.1176 10.6251 12.2491 11.0575 12.25 11.5Z"
        fill="white" />
</svg>