<svg width="30" height="30" viewBox="0 0 30 30" fill="none" xmlns="http://www.w3.org/2000/svg">
<path d="M14.75 0.625C11.8575 0.625 9.02986 1.48274 6.62479 3.08976C4.21972 4.69677 2.3452 6.98089 1.23827 9.65325C0.131337 12.3256 -0.158287 15.2662 0.406022 18.1032C0.970331 20.9402 2.36323 23.5461 4.40857 25.5914C6.45391 27.6368 9.05984 29.0297 11.8968 29.594C14.7338 30.1583 17.6744 29.8687 20.3468 28.7617C23.0191 27.6548 25.3032 25.7803 26.9102 23.3752C28.5173 20.9701 29.375 18.1426 29.375 15.25C29.3709 11.3725 27.8288 7.65492 25.0869 4.91309C22.3451 2.17125 18.6275 0.629095 14.75 0.625ZM14.1875 7.375C14.5213 7.375 14.8475 7.47397 15.125 7.65939C15.4025 7.84482 15.6188 8.10837 15.7466 8.41672C15.8743 8.72507 15.9077 9.06437 15.8426 9.39172C15.7775 9.71906 15.6167 10.0197 15.3807 10.2557C15.1447 10.4917 14.8441 10.6525 14.5167 10.7176C14.1894 10.7827 13.8501 10.7493 13.5417 10.6215C13.2334 10.4938 12.9698 10.2775 12.7844 10C12.599 9.72252 12.5 9.39626 12.5 9.0625C12.5 8.61495 12.6778 8.18572 12.9943 7.86926C13.3107 7.55279 13.74 7.375 14.1875 7.375ZM15.875 23.125C15.2783 23.125 14.706 22.8879 14.284 22.466C13.8621 22.044 13.625 21.4717 13.625 20.875V15.25C13.3266 15.25 13.0405 15.1315 12.8295 14.9205C12.6185 14.7095 12.5 14.4234 12.5 14.125C12.5 13.8266 12.6185 13.5405 12.8295 13.3295C13.0405 13.1185 13.3266 13 13.625 13C14.2217 13 14.794 13.2371 15.216 13.659C15.638 14.081 15.875 14.6533 15.875 15.25V20.875C16.1734 20.875 16.4595 20.9935 16.6705 21.2045C16.8815 21.4155 17 21.7016 17 22C17 22.2984 16.8815 22.5845 16.6705 22.7955C16.4595 23.0065 16.1734 23.125 15.875 23.125Z" fill="#353506"/>
</svg>
