<svg width="21" height="15" viewBox="0 0 21 15" fill="none" xmlns="http://www.w3.org/2000/svg">
<path d="M20.1115 4.36142L17.3615 7.11142C17.2325 7.24043 17.0575 7.3129 16.8751 7.3129C16.6926 7.3129 16.5177 7.24043 16.3887 7.11142C16.2597 6.98242 16.1872 6.80745 16.1872 6.62502C16.1872 6.44258 16.2597 6.26761 16.3887 6.13861L17.9656 4.56252H15.5001C15.3574 4.56252 11.9466 4.62869 11.3656 8.11259C10.9454 10.6297 9.46297 11.7813 8.2925 12.2969C7.54722 12.6244 6.74403 12.7997 5.93008 12.8125H5.78914C5.62181 13.4606 5.22386 14.0254 4.66989 14.4011C4.11591 14.7767 3.44395 14.9374 2.77995 14.8531C2.11596 14.7688 1.50551 14.4451 1.06304 13.9429C0.620577 13.4407 0.376465 12.7943 0.376465 12.125C0.376465 11.4557 0.620577 10.8093 1.06304 10.3071C1.50551 9.80488 2.11596 9.48127 2.77995 9.39693C3.44395 9.3126 4.11591 9.47332 4.66989 9.84898C5.22386 10.2246 5.62181 10.7894 5.78914 11.4375H5.90344C6.04266 11.4375 9.40711 11.5071 10.0104 7.88658C10.4143 5.4597 11.8907 4.3047 13.0638 3.76588C13.8299 3.41459 14.6578 3.21804 15.5001 3.18752H17.9656L16.3887 1.61142C16.2597 1.48242 16.1872 1.30745 16.1872 1.12502C16.1872 0.942578 16.2597 0.767613 16.3887 0.63861C16.5177 0.509607 16.6926 0.437134 16.8751 0.437134C17.0575 0.437134 17.2325 0.509607 17.3615 0.63861L20.1115 3.38861C20.1754 3.45246 20.2261 3.52828 20.2607 3.61174C20.2953 3.69521 20.3131 3.78467 20.3131 3.87502C20.3131 3.96536 20.2953 4.05483 20.2607 4.13829C20.2261 4.22175 20.1754 4.29757 20.1115 4.36142Z" fill="#343330"/>
</svg>
