<svg width="20" height="20" viewBox="0 0 20 20" fill="none" xmlns="http://www.w3.org/2000/svg">
<path d="M13.75 3.25001C13.75 3.0511 13.829 2.86033 13.9697 2.71968C14.1103 2.57903 14.3011 2.50001 14.5 2.50001H19C19.1989 2.50001 19.3897 2.57903 19.5304 2.71968C19.671 2.86033 19.75 3.0511 19.75 3.25001C19.75 3.44892 19.671 3.63969 19.5304 3.78034C19.3897 3.92099 19.1989 4.00001 19 4.00001H14.5C14.3011 4.00001 14.1103 3.92099 13.9697 3.78034C13.829 3.63969 13.75 3.44892 13.75 3.25001ZM18.7516 7.76032C18.5554 7.79315 18.3803 7.90256 18.2648 8.06449C18.1493 8.22641 18.1028 8.42758 18.1356 8.62376C18.2118 9.07855 18.2501 9.53889 18.25 10C18.2518 12.0196 17.5095 13.969 16.165 15.4759C15.6195 14.6853 14.9269 14.007 14.125 13.4781C14.0565 13.4327 13.9751 13.4111 13.8931 13.4165C13.8111 13.4219 13.7332 13.4541 13.6713 13.5081C12.6523 14.3898 11.3499 14.8751 10.0024 14.8751C8.65488 14.8751 7.35246 14.3898 6.33346 13.5081C6.27119 13.453 6.19236 13.4201 6.10938 13.4147C6.02639 13.4093 5.94395 13.4316 5.87502 13.4781C5.07193 14.0065 4.37831 14.6848 3.83221 15.4759C2.7771 14.287 2.08795 12.8185 1.84765 11.2472C1.60734 9.67582 1.82612 8.0685 2.47767 6.61854C3.12921 5.16858 4.18578 3.93773 5.52028 3.07403C6.85479 2.21033 8.41041 1.75055 10 1.75001C10.4612 1.74994 10.9215 1.78819 11.3763 1.86439C11.5716 1.8952 11.7711 1.84766 11.9315 1.73209C12.092 1.61653 12.2003 1.4423 12.2329 1.24731C12.2655 1.05231 12.2198 0.852316 12.1057 0.690833C11.9917 0.52935 11.8185 0.41944 11.6238 0.385011C9.587 0.0423685 7.49403 0.355887 5.64706 1.2803C3.80008 2.20471 2.29468 3.69218 1.3482 5.52795C0.401717 7.36371 0.063138 9.45277 0.381346 11.4935C0.699554 13.5342 1.65808 15.421 3.11854 16.8815C4.57899 18.342 6.4658 19.3005 8.50653 19.6187C10.5473 19.9369 12.6363 19.5983 14.4721 18.6518C16.3079 17.7054 17.7953 16.2 18.7197 14.353C19.6441 12.506 19.9577 10.413 19.615 8.37626C19.5822 8.18009 19.4728 8.00499 19.3109 7.88948C19.1489 7.77397 18.9478 7.72751 18.7516 7.76032ZM5.87502 9.25001C5.87502 10.0659 6.11695 10.8634 6.57021 11.5417C7.02347 12.2201 7.66771 12.7488 8.42146 13.061C9.1752 13.3732 10.0046 13.4549 10.8048 13.2957C11.6049 13.1366 12.3399 12.7437 12.9168 12.1668C13.4937 11.5899 13.8866 10.8549 14.0458 10.0548C14.2049 9.25459 14.1232 8.42519 13.811 7.67144C13.4988 6.9177 12.9701 6.27346 12.2918 5.8202C11.6134 5.36694 10.8159 5.12501 10 5.12501C8.90601 5.12501 7.8568 5.55961 7.08321 6.33319C6.30962 7.10678 5.87502 8.15599 5.87502 9.25001Z" fill="#353506"/>
</svg>
