<svg width="136" height="136" viewBox="0 0 136 136" fill="none" xmlns="http://www.w3.org/2000/svg">
<path d="M64.6185 123.691C67.1353 123.769 68.9042 125.778 68.8213 128.46C68.7384 131.142 66.8489 133.039 64.332 132.961C61.8151 132.883 60.0463 130.874 60.1291 128.192C60.212 125.51 62.1016 123.614 64.6185 123.691ZM67.611 128.423C67.6735 126.401 66.3982 124.903 64.5828 124.847C62.7673 124.79 61.4019 126.208 61.3394 128.229C61.2765 130.265 62.5514 131.777 64.3669 131.833C66.1823 131.889 67.5481 130.458 67.611 128.423Z" fill="black" fill-opacity="0.3"/>
<path d="M58.2176 132.555L57.1292 132.39L58.5329 123.139L59.6213 123.304L58.2176 132.555Z" fill="black" fill-opacity="0.3"/>
<path d="M54.2976 129.344L53.0458 129.018L52.4327 123.399L49.2905 128.042L48.0653 127.723L52.9779 120.868C53.668 119.91 54.5807 119.408 55.514 119.537L55.5158 120.732C54.916 120.633 54.3869 120.808 53.9877 121.358L53.3653 122.22L54.2976 129.344Z" fill="black" fill-opacity="0.3"/>
<path d="M38.6974 120.794C38.2793 121.768 38.5606 122.682 39.4079 123.045C40.3689 123.458 41.5023 122.911 42.018 121.71L43.4621 118.346L44.4611 118.775L42.8541 122.518C42.4307 123.504 42.6957 124.456 43.5809 124.836C44.5546 125.253 45.7006 124.712 46.2163 123.511L47.6604 120.147L48.6721 120.581L45.9576 126.903L45.1483 126.556L45.4436 125.38C44.8577 126.012 43.8818 126.193 42.984 125.807C42.0356 125.4 41.5085 124.501 41.529 123.476C40.9124 124.215 39.772 124.429 38.7857 124.006C37.3947 123.41 37.0342 121.877 37.6423 120.461L39.3144 116.567L40.326 117.001L38.6974 120.794Z" fill="black" fill-opacity="0.3"/>
<path d="M36.7809 114.255C37.6517 114.809 38.1056 115.685 38.1151 116.669L40.2136 113.372L41.1424 113.963L35.9701 122.089L35.1806 121.586L35.6851 120.538C34.8006 120.953 33.8147 120.913 32.9091 120.338C31.3532 119.348 30.9437 117.326 32.0669 115.562C33.227 113.74 35.2832 113.302 36.7809 114.255ZM36.9117 118.611C37.695 117.38 37.4438 115.981 36.3291 115.272C35.2145 114.563 33.8402 114.929 33.057 116.159C32.2663 117.401 32.5101 118.812 33.6247 119.521C34.7394 120.23 36.1211 119.853 36.9117 118.611Z" fill="black" fill-opacity="0.3"/>
<path d="M28.3969 116.784L27.5452 116.087L31.9062 110.766L32.7579 111.463L28.3969 116.784ZM27.5147 118.338C27.192 118.732 26.6797 118.793 26.2965 118.479C25.9132 118.165 25.8719 117.651 26.1946 117.257C26.5173 116.864 27.0296 116.803 27.4129 117.117C27.7961 117.43 27.8375 117.944 27.5147 118.338Z" fill="black" fill-opacity="0.3"/>
<path d="M23.0113 105.394C24.2508 104.537 25.9215 104.757 27.0329 105.903C28.3456 107.256 28.3526 109.338 26.8014 110.842C25.2798 112.316 23.1971 112.304 21.8941 110.961C20.8113 109.845 20.6514 108.218 21.4676 107.043L22.5874 107.644C21.9526 108.413 21.9653 109.493 22.6647 110.214C23.5079 111.083 24.9103 111.027 25.9774 109.992C27.0642 108.939 27.124 107.578 26.2809 106.709C25.5527 105.958 24.464 105.863 23.6161 106.57L23.0113 105.394Z" fill="black" fill-opacity="0.3"/>
<path d="M20.8516 98.2732L13.1137 102.759L12.2436 101.259L17.1542 95.1362L9.42613 96.4034L8.58365 94.9513L16.3215 90.4657L16.9016 91.4655L10.7113 95.054L18.252 93.8477L18.832 94.8474L14.0812 100.862L20.2715 97.2735L20.8516 98.2732Z" fill="black" fill-opacity="0.3"/>
<path d="M15.5863 87.2339C16.3118 89.0778 15.4197 90.907 13.486 91.6671C11.5267 92.4373 9.60139 91.7157 8.89606 89.923C8.17059 88.0792 9.19259 86.3172 11.2416 85.5118C11.2928 85.4916 11.3568 85.4665 11.4643 85.439L13.414 90.3943C14.4933 89.7926 14.9749 88.6866 14.5618 87.6367C14.2293 86.7916 13.3892 86.2347 12.5859 86.3731L12.4911 85.0797C13.7289 84.9184 15.022 85.7998 15.5863 87.2339ZM12.4051 90.7614L10.8937 86.92C9.84734 87.5679 9.55235 88.6597 9.91509 89.5816C10.2879 90.5291 11.2794 90.9821 12.4051 90.7614Z" fill="black" fill-opacity="0.3"/>
<path d="M13.4751 80.0073C13.916 81.8543 12.7053 83.6567 10.7244 84.1292C8.75688 84.5985 6.91213 83.5673 6.47438 81.7337C6.23793 80.7433 6.48471 79.8215 7.10644 79.1074L3.66662 79.9279L3.411 78.8572L11.174 77.0055L12.5061 76.6595L12.7234 77.5696L11.6712 77.962C12.5823 78.2822 13.2354 79.0035 13.4751 80.0073ZM10.4828 82.9985C11.8882 82.6633 12.6919 81.4672 12.3788 80.1556C12.0688 78.8574 10.8477 78.1867 9.41557 78.5283C7.98342 78.8699 7.17968 80.066 7.49281 81.3776C7.79956 82.6625 9.05063 83.3401 10.4828 82.9985Z" fill="black" fill-opacity="0.3"/>
<path d="M8.73088 71.2032C8.78148 71.295 8.82655 71.4703 8.88668 71.6579L9.39491 73.4327C9.58345 74.0777 10.0269 74.3655 10.5335 74.3152C11.0675 74.2622 11.3937 73.7873 11.3175 73.0206C11.2046 71.8841 10.2645 71.051 9.16904 71.1597L8.73088 71.2032ZM10.6533 75.5202C9.66738 75.618 8.90375 75.0301 8.54579 73.7935L7.95286 71.7229C7.88593 71.4669 7.71762 71.3038 7.52592 71.3228L7.47115 71.3283C6.60851 71.4139 6.05493 72.105 6.14201 72.9813C6.23181 73.885 6.97632 74.4195 7.93753 74.3517L7.86556 75.5757C6.44161 75.5788 5.30445 74.5716 5.15886 73.1065C5.01191 71.6277 5.8698 70.3811 7.3623 70.2329L10.539 69.9175L11.9055 69.7542L11.9953 70.6579L10.8902 70.9473C11.7239 71.2656 12.2984 72.0382 12.4073 73.1336C12.5379 74.4481 11.8034 75.406 10.6533 75.5202Z" fill="black" fill-opacity="0.3"/>
<path d="M2.64788 67.6638L2.65343 66.563L12.0101 66.6101L12.0046 67.7109L2.64788 67.6638Z" fill="black" fill-opacity="0.3"/>
<path d="M12.8619 58.0244L4.12009 56.1336L4.98772 52.1259C5.31671 50.6062 6.65536 49.7555 8.1751 50.0842C9.37206 50.3431 10.165 51.2326 10.277 52.3408L14.3293 51.2464L14.044 52.5643L10.1553 53.5534L9.59631 56.1355L13.1065 56.8947L12.8619 58.0244ZM8.54729 55.9086L9.14706 53.1382C9.33922 52.2506 8.83342 51.4654 7.93233 51.2705C7.03125 51.0756 6.23832 51.5517 6.05199 52.4124L5.44057 55.2366L8.54729 55.9086Z" fill="black" fill-opacity="0.3"/>
<path d="M16.901 44.713L16.5674 45.6166L15.4224 45.3408C16.0663 45.901 16.2648 46.9129 15.9025 47.8939C15.3735 49.3267 13.8643 49.958 12.3281 49.3912L8.37773 47.934L8.75902 46.9013L12.6061 48.3205C13.5872 48.6824 14.5437 48.3166 14.9011 47.3485C15.2777 46.3288 14.819 45.1476 13.5926 44.6952L10.0554 43.3903L10.4367 42.3576L15.6005 44.2626L16.901 44.713Z" fill="black" fill-opacity="0.3"/>
<path d="M16.0094 41.4603C16.8026 41.8145 17.7413 41.3593 18.1829 40.5188C18.5413 39.8367 18.4446 39.1332 17.9329 38.8646C16.544 38.1355 15.2465 42.0544 13.1144 40.9352C12.0423 40.3723 11.9632 39.103 12.5968 37.8971C13.256 36.6425 14.4369 36.0813 15.4698 36.4526L15.2002 37.6165C14.5904 37.3275 13.8696 37.6639 13.4983 38.3704C13.1783 38.9795 13.2263 39.6574 13.7136 39.9132C15.0294 40.6039 16.3641 36.6734 18.4961 37.7927C19.5683 38.3555 19.8 39.6894 19.0704 41.078C18.3088 42.5275 16.9165 43.1953 15.7386 42.6858L16.0094 41.4603Z" fill="black" fill-opacity="0.3"/>
<path d="M20.776 30.6766C19.8984 30.0587 18.8641 30.1888 18.2696 31.0324C17.6118 31.9659 17.8412 33.2886 18.91 34.0411L21.9253 36.1641L21.2912 37.0639L13.6405 31.6773L14.2746 30.7775L17.2336 32.8608C16.76 32.1235 16.8623 31.1185 17.4646 30.2637C18.3603 28.9927 19.9812 28.7708 21.3426 29.7293L24.7629 32.1374L24.1288 33.0372L20.776 30.6766Z" fill="black" fill-opacity="0.3"/>
<path d="M26.3759 24.6385L29.9171 21.4152L30.6399 22.2085L27.0987 25.4318L26.3759 24.6385Z" fill="black" fill-opacity="0.3"/>
<path d="M38.7377 20.2198L34.3311 12.4367L37.6606 10.5533C38.99 9.80131 40.4654 10.0892 41.1094 11.2267C41.5433 11.993 41.4611 12.909 40.9016 13.6524C41.9813 13.4368 42.9832 13.866 43.4849 14.7521C44.1561 15.9375 43.6721 17.4286 42.3786 18.1603L38.7377 20.2198ZM39.1878 18.6689L41.679 17.2597C42.4934 16.799 42.7939 15.9334 42.3804 15.203C41.9668 14.4726 41.0697 14.2845 40.2553 14.7452L37.7641 16.1543L39.1878 18.6689ZM37.2218 15.1964L39.5213 13.8956C40.2998 13.4553 40.578 12.634 40.1915 11.9514C39.8051 11.2689 38.9575 11.0844 38.179 11.5248L35.8795 12.8255L37.2218 15.1964Z" fill="black" fill-opacity="0.3"/>
<path d="M45.9922 16.5074L43.3746 10.1448L44.24 9.78912L44.8018 10.793C44.8036 9.92939 45.2208 9.20747 45.9589 8.90406C46.2135 8.79943 46.4815 8.76367 46.7345 8.76382L47.1757 9.98091C46.8583 9.93283 46.5319 10.0075 46.3283 10.0912C45.4374 10.4574 45.0942 11.4315 45.5026 12.4241L47.0103 16.0889L45.9922 16.5074Z" fill="black" fill-opacity="0.3"/>
<path d="M54.3611 13.8491C52.4384 14.382 50.6415 13.3094 50.0824 11.294C49.5233 9.27855 50.511 7.43413 52.4337 6.90122C54.3564 6.3683 56.1533 7.44091 56.7124 9.45632C57.2715 11.4717 56.2838 13.3161 54.3611 13.8491ZM51.1962 10.9852C51.5861 12.3907 52.7939 13.1411 54.0669 12.7883C55.3398 12.4355 55.9885 11.1705 55.5986 9.76504C55.205 8.3463 53.9935 7.58261 52.7206 7.93544C51.4476 8.28826 50.8026 9.5665 51.1962 10.9852Z" fill="black" fill-opacity="0.3"/>
<path d="M63.0655 8.0271C62.9208 6.96363 62.1214 6.29469 61.0989 6.43378C59.9672 6.58771 59.1545 7.65643 59.3308 8.95169L59.8283 12.6057L58.7375 12.754L57.8095 5.93691L58.7366 5.8108L59.0573 7.04475C59.2968 6.15121 60.0232 5.46915 61.114 5.32079C62.6547 5.11123 63.9206 6.14719 64.1452 7.79693L64.7094 11.9417L63.6187 12.0901L63.0655 8.0271Z" fill="black" fill-opacity="0.3"/>
<path d="M65.9132 12.0207L65.9073 10.8924L70.0933 6.16469L65.9929 6.18601L65.9874 5.14026L71.4363 5.11193L71.4419 6.1852L67.3109 10.9127L71.5214 10.8908L71.5272 11.9916L65.9132 12.0207Z" fill="black" fill-opacity="0.3"/>
<path d="M76.1842 12.7652C74.2182 12.5186 73.0398 10.8592 73.2986 8.7976C73.5609 6.70872 75.1164 5.36452 77.0278 5.60429C78.9939 5.85091 80.0511 7.5922 79.7768 9.77665C79.77 9.83126 79.7614 9.89953 79.7341 10.007L74.4503 9.34424C74.4616 10.5799 75.2018 11.5326 76.3214 11.673C77.2225 11.786 78.1136 11.3154 78.3769 10.5441L79.5577 11.0805C79.1065 12.2442 77.7134 12.957 76.1842 12.7652ZM74.6114 8.28275L78.7073 8.79654C78.6396 7.56769 77.8225 6.78567 76.8395 6.66236C75.8292 6.53563 74.9567 7.18891 74.6114 8.28275Z" fill="black" fill-opacity="0.3"/>
<path d="M91.9851 12.8957L96.324 14.9214L95.8696 15.8937L91.5307 13.8681L91.9851 12.8957Z" fill="black" fill-opacity="0.3"/>
<path d="M103.781 25.1147C101.801 23.5597 101.569 20.8932 103.227 18.7835C104.885 16.6738 107.531 16.2677 109.512 17.8227C111.492 19.3777 111.725 22.0442 110.067 24.1539C108.409 26.2636 105.762 26.6697 103.781 25.1147ZM104.179 19.5313C102.929 21.1217 103.067 23.0842 104.496 24.2059C105.924 25.3276 107.864 24.9965 109.114 23.4061C110.373 21.8049 110.243 19.8315 108.815 18.7099C107.386 17.5882 105.437 17.9301 104.179 19.5313Z" fill="black" fill-opacity="0.3"/>
<path d="M114.194 21.774L114.972 22.5523L108.354 29.1665L107.575 28.3882L114.194 21.774Z" fill="black" fill-opacity="0.3"/>
<path d="M115.444 26.6831L116.259 27.6876L113.419 32.5747L118.703 30.7012L119.501 31.6844L111.479 34.2889C110.355 34.6507 109.322 34.5134 108.647 33.8561L109.355 32.8932C109.779 33.3288 110.309 33.5015 110.957 33.2954L111.969 32.9708L115.444 26.6831Z" fill="black" fill-opacity="0.3"/>
<path d="M122.932 42.8175C123.847 42.2817 124.162 41.3788 123.696 40.5837C123.167 39.6817 121.93 39.4498 120.802 40.1109L117.644 41.9619L117.094 41.0244L120.608 38.9645C121.534 38.4217 121.885 37.498 121.398 36.6672C120.862 35.7534 119.618 35.5096 118.49 36.1707L115.332 38.0218L114.775 37.0723L120.711 33.5929L121.156 34.3525L120.221 35.124C121.068 34.9627 121.96 35.3964 122.455 36.239C122.977 37.1291 122.868 38.1662 122.244 38.9787C123.178 38.7498 124.223 39.2535 124.767 40.1792C125.533 41.4847 124.914 42.9319 123.585 43.7113L119.928 45.8546L119.371 44.9052L122.932 42.8175Z" fill="black" fill-opacity="0.3"/>
<path d="M120.595 49.217C120.223 48.2545 120.377 47.2803 120.953 46.482L117.308 47.8916L116.911 46.865L125.895 43.3908L126.232 44.2633L125.204 44.8086C126.163 44.9984 126.933 45.6153 127.32 46.6162C127.986 48.3358 127.116 50.2063 125.166 50.9607C123.151 51.74 121.236 50.8723 120.595 49.217ZM123.074 45.6325C121.713 46.1586 121.086 47.434 121.562 48.6659C122.039 49.8978 123.362 50.4189 124.723 49.8928C126.096 49.3617 126.736 48.0813 126.26 46.8494C125.783 45.6175 124.447 45.1014 123.074 45.6325Z" fill="black" fill-opacity="0.3"/>
<path d="M128.844 52.1516L129.116 53.2183L122.449 54.9165L122.177 53.8499L128.844 52.1516ZM130.476 51.4235C130.969 51.2979 131.418 51.5528 131.54 52.0328C131.662 52.5128 131.391 52.9512 130.897 53.0769C130.404 53.2026 129.956 52.9476 129.833 52.4676C129.711 51.9876 129.983 51.5492 130.476 51.4235Z" fill="black" fill-opacity="0.3"/>
<path d="M126.421 64.5166C124.915 64.4712 123.701 63.303 123.486 61.7214C123.232 59.8535 124.462 58.1729 126.602 57.882C128.702 57.5968 130.371 58.842 130.623 60.6963C130.833 62.237 129.996 63.6421 128.643 64.1037L128.098 62.9557C129.065 62.7133 129.695 61.8361 129.56 60.8408C129.397 59.6409 128.234 58.8546 126.762 59.0546C125.262 59.2584 124.406 60.3189 124.57 61.5187C124.71 62.5549 125.531 63.2767 126.633 63.2103L126.421 64.5166Z" fill="black" fill-opacity="0.3"/>
<path d="M123.934 71.5284L132.825 72.5045L132.635 74.2279L125.049 76.2466L132.022 79.8084L131.839 81.4771L122.948 80.5009L123.074 79.352L130.187 80.1329L123.401 76.6331L123.527 75.4842L130.92 73.4582L123.808 72.6773L123.934 71.5284Z" fill="black" fill-opacity="0.3"/>
<path d="M121.621 83.5378C122.131 81.6231 123.935 80.6793 125.943 81.2138C127.977 81.7553 129.099 83.4778 128.603 85.3392C128.093 87.2539 126.225 88.0666 124.097 87.5003C124.044 87.4861 123.977 87.4684 123.875 87.4268L125.246 82.2812C124.02 82.1257 122.976 82.7306 122.685 83.8209C122.451 84.6985 122.797 85.6449 123.526 86.0098L122.835 87.1073C121.743 86.5033 121.225 85.027 121.621 83.5378ZM126.276 82.5838L125.213 86.5727C126.44 86.6714 127.325 85.9673 127.58 85.01C127.842 84.0261 127.313 83.0735 126.276 82.5838Z" fill="black" fill-opacity="0.3"/>
<path d="M119.032 90.6069C119.773 88.8586 121.817 88.1254 123.693 88.9195C125.555 89.7082 126.429 91.632 125.693 93.3677C125.296 94.3052 124.55 94.901 123.626 95.1073L126.882 96.4862L126.452 97.4997L119.103 94.3878L117.826 93.8766L118.191 93.0151L119.271 93.323C118.727 92.525 118.629 91.5571 119.032 90.6069ZM123.216 89.9729C121.886 89.4096 120.529 89.8959 120.003 91.1375C119.482 92.3664 120.067 93.6303 121.423 94.2044C122.779 94.7785 124.135 94.2921 124.662 93.0506C125.177 91.8343 124.572 90.547 123.216 89.9729Z" fill="black" fill-opacity="0.3"/>
<path d="M117.627 100.507C117.641 100.403 117.708 100.236 117.771 100.049L118.415 98.3189C118.646 97.6879 118.46 97.1932 118.022 96.9333C117.561 96.6594 117.016 96.8483 116.623 97.5107C116.039 98.4925 116.302 99.7206 117.248 100.283L117.627 100.507ZM118.641 95.8924C119.492 96.3981 119.758 97.3242 119.313 98.5319L118.562 100.55C118.464 100.796 118.502 101.027 118.668 101.125L118.715 101.154C119.461 101.596 120.317 101.368 120.766 100.611C121.23 99.8303 120.948 98.9586 120.134 98.4432L120.918 97.5006C122.067 98.3424 122.385 99.8274 121.632 101.093C120.873 102.371 119.443 102.866 118.153 102.1L115.408 100.47L114.211 99.7915L114.675 99.0107L115.736 99.433C115.254 98.6825 115.25 97.7199 115.812 96.7735C116.487 95.6379 117.647 95.3023 118.641 95.8924Z" fill="black" fill-opacity="0.3"/>
<path d="M120.424 106.964L119.767 107.847L112.26 102.261L112.918 101.378L120.424 106.964Z" fill="black" fill-opacity="0.3"/>
<path d="M106.479 108.667L112.397 115.374L109.321 118.085C108.154 119.113 106.572 119.004 105.543 117.838C104.733 116.92 104.622 115.734 105.189 114.775L101.277 113.253L102.289 112.361L106.007 113.871L107.988 112.124L105.612 109.431L106.479 108.667ZM108.698 112.929L106.572 114.804C105.891 115.404 105.832 116.336 106.442 117.027C107.052 117.719 107.973 117.806 108.634 117.223L110.801 115.313L108.698 112.929Z" fill="black" fill-opacity="0.3"/>
<path d="M95.3299 116.988L96.1345 116.458L96.8928 117.359C96.7067 116.527 97.1471 115.594 98.0206 115.019C99.2965 114.18 100.886 114.567 101.787 115.934L104.103 119.45L103.183 120.055L100.928 116.631C100.353 115.758 99.3655 115.485 98.5034 116.052C97.5954 116.65 97.264 117.873 97.9831 118.965L100.057 122.113L99.1376 122.718L96.1098 118.122L95.3299 116.988Z" fill="black" fill-opacity="0.3"/>
<path d="M94.117 120.136C93.6885 119.381 92.6628 119.19 91.8087 119.605C91.1156 119.942 90.7762 120.565 91.0288 121.085C91.7145 122.496 95.0836 120.11 96.1362 122.276C96.6655 123.365 95.9764 124.434 94.751 125.029C93.4761 125.648 92.1925 125.4 91.5812 124.488L92.4886 123.711C92.8081 124.305 93.588 124.462 94.3059 124.113C94.9248 123.813 95.2882 123.239 95.0477 122.744C94.398 121.407 90.9921 123.78 89.9395 121.614C89.4102 120.525 90.0148 119.314 91.4259 118.628C92.8988 117.913 94.4158 118.201 95.0619 119.31L94.117 120.136Z" fill="black" fill-opacity="0.3"/>
<path d="M83.8818 125.992C84.2218 127.01 85.1316 127.519 86.1105 127.192C87.1939 126.831 87.7938 125.63 87.3797 124.39L86.2116 120.892L87.2558 120.544L90.2197 129.419L89.1755 129.767L88.0291 126.335C87.973 127.209 87.2946 127.958 86.3026 128.289C84.8276 128.781 83.3912 127.998 82.8638 126.419L81.5387 122.451L82.5829 122.103L83.8818 125.992Z" fill="black" fill-opacity="0.3"/>
<path d="M75.7894 127.534L71.0266 128.03L70.9154 126.962L75.6782 126.467L75.7894 127.534Z" fill="black" fill-opacity="0.3"/>
</svg>
