<svg width="136" height="136" viewBox="0 0 136 136" fill="none" xmlns="http://www.w3.org/2000/svg">
<path d="M63.8676 123.632C66.3832 123.744 68.1247 125.777 68.0055 128.457C67.8863 131.138 65.9712 133.009 63.4556 132.897C60.94 132.785 59.1985 130.752 59.3177 128.071C59.4369 125.391 61.352 123.52 63.8676 123.632ZM66.7958 128.404C66.8856 126.383 65.6308 124.867 63.8162 124.787C62.0017 124.706 60.6173 126.104 60.5274 128.125C60.437 130.16 61.6912 131.689 63.5057 131.77C65.3203 131.85 66.7053 130.438 66.7958 128.404Z" fill="black" fill-opacity="0.3"/>
<path d="M57.2288 132.393L56.143 132.211L57.6856 122.983L58.7713 123.164L57.2288 132.393Z" fill="black" fill-opacity="0.3"/>
<path d="M53.2933 129.109L52.047 128.763L51.5257 123.134L48.3082 127.724L47.0884 127.386L52.1121 120.612C52.8177 119.666 53.7385 119.179 54.6695 119.323L54.6518 120.518C54.0537 120.409 53.5219 120.575 53.1138 121.119L52.4774 121.97L53.2933 129.109Z" fill="black" fill-opacity="0.3"/>
<path d="M37.754 120.258C37.3183 121.224 37.5829 122.143 38.4234 122.522C39.3767 122.952 40.5198 122.426 41.0573 121.235L42.5623 117.898L43.5533 118.345L41.8785 122.058C41.4372 123.036 41.6848 123.993 42.5629 124.389C43.5288 124.824 44.6844 124.304 45.2219 123.112L46.7269 119.776L47.7304 120.228L44.9014 126.5L44.0986 126.138L44.4152 124.967C43.818 125.589 42.839 125.751 41.9484 125.349C41.0076 124.925 40.497 124.016 40.5362 122.992C39.9062 123.719 38.7622 123.913 37.7838 123.472C36.404 122.85 36.0715 121.311 36.7052 119.906L38.4479 116.043L39.4514 116.496L37.754 120.258Z" fill="black" fill-opacity="0.3"/>
<path d="M35.8558 113.622C36.7152 114.193 37.1512 115.078 37.1407 116.063L39.3054 112.809L40.222 113.419L34.8866 121.438L34.1074 120.92L34.6331 119.881C33.7404 120.279 32.7556 120.219 31.8619 119.625C30.3265 118.604 29.9581 116.574 31.1166 114.833C32.3133 113.034 34.3778 112.639 35.8558 113.622ZM35.8984 117.98C36.7063 116.765 36.4835 115.361 35.3836 114.63C34.2836 113.898 32.9023 114.236 32.0943 115.45C31.2788 116.676 31.4939 118.091 32.5939 118.823C33.6939 119.554 35.0828 119.205 35.8984 117.98Z" fill="black" fill-opacity="0.3"/>
<path d="M27.3374 115.912L26.5012 115.196L30.9765 109.971L31.8128 110.687L27.3374 115.912ZM26.4217 117.447C26.0905 117.833 25.5771 117.883 25.2008 117.561C24.8244 117.239 24.7943 116.724 25.1255 116.337C25.4567 115.951 25.9701 115.901 26.3464 116.223C26.7228 116.545 26.7529 117.06 26.4217 117.447Z" fill="black" fill-opacity="0.3"/>
<path d="M22.1595 104.353C23.4185 103.525 25.0835 103.784 26.1679 104.956C27.4487 106.339 27.4072 108.421 25.8217 109.888C24.2664 111.327 22.1848 111.266 20.9134 109.893C19.857 108.752 19.7349 107.122 20.578 105.966L21.6835 106.593C21.0311 107.347 21.0187 108.427 21.7011 109.164C22.5238 110.053 23.927 110.029 25.0177 109.02C26.1286 107.992 26.22 106.632 25.3974 105.744C24.6869 104.976 23.6008 104.856 22.7368 105.544L22.1595 104.353Z" fill="black" fill-opacity="0.3"/>
<path d="M20.0791 97.0537L12.2263 101.335L11.3961 99.8128L16.4659 93.8204L8.70773 94.8843L7.90385 93.4106L15.7566 89.1293L16.3101 90.144L10.0279 93.569L17.5972 92.5611L18.1507 93.5758L13.2434 99.464L19.5256 96.039L20.0791 97.0537Z" fill="black" fill-opacity="0.3"/>
<path d="M15.0654 85.7737C15.7384 87.6373 14.7951 89.4408 12.8408 90.1462C10.8606 90.861 8.95653 90.0854 8.30216 88.2736C7.62909 86.41 8.70042 84.6774 10.7712 83.9299C10.823 83.9112 10.8877 83.8878 10.9959 83.8634L12.8048 88.8719C13.9006 88.3008 14.4132 87.2087 14.03 86.1475C13.7215 85.2933 12.8974 84.713 12.0907 84.8287L12.0324 83.5331C13.2742 83.4067 14.5419 84.3242 15.0654 85.7737ZM11.7859 89.2104L10.3837 85.3278C9.31954 85.946 8.99384 87.0291 9.33038 87.9609C9.67626 88.9186 10.6545 89.3994 11.7859 89.2104Z" fill="black" fill-opacity="0.3"/>
<path d="M13.1384 78.4004C13.5238 80.2598 12.2595 82.0252 10.2654 82.4382C8.28468 82.8484 6.47174 81.7625 6.08922 79.9166C5.8826 78.9195 6.15692 78.0056 6.79979 77.3103L3.33696 78.0275L3.11359 76.9496L10.9285 75.331L12.2703 75.025L12.4602 75.9412L11.3967 76.302C12.2978 76.6494 12.929 77.3898 13.1384 78.4004ZM10.0578 81.3008C11.4725 81.0078 12.3118 79.8363 12.0382 78.5158C11.7673 77.2089 10.5669 76.502 9.12521 76.8006C7.68349 77.0992 6.84423 78.2707 7.11785 79.5911C7.3859 80.8846 8.61605 81.5994 10.0578 81.3008Z" fill="black" fill-opacity="0.3"/>
<path d="M8.65373 69.3529C8.7014 69.4463 8.74089 69.6229 8.79504 69.8123L9.24677 71.6023C9.41478 72.253 9.84887 72.5547 10.3568 72.5204C10.8923 72.4843 11.2333 72.02 11.1815 71.2512C11.1046 70.1117 10.1914 69.2493 9.09305 69.3233L8.65373 69.3529ZM10.4383 73.7286C9.44985 73.7952 8.70523 73.1834 8.38665 71.9361L7.85963 69.8478C7.80085 69.5897 7.63779 69.4214 7.44559 69.4344L7.39067 69.4381C6.52576 69.4964 5.95056 70.1696 6.00983 71.0482C6.07094 71.9543 6.79813 72.5121 7.761 72.4748L7.65029 73.6959C6.22696 73.6539 5.12229 72.6113 5.0232 71.1423C4.92319 69.6596 5.82015 68.4407 7.31659 68.3398L10.5017 68.1251L11.8727 68.005L11.9338 68.9111L10.8201 69.1655C11.6432 69.51 12.193 70.3004 12.2671 71.3987C12.356 72.7166 11.5916 73.6508 10.4383 73.7286Z" fill="black" fill-opacity="0.3"/>
<path d="M2.68701 65.5247L2.72886 64.4247L12.0789 64.7802L12.0371 65.8802L2.68701 65.5247Z" fill="black" fill-opacity="0.3"/>
<path d="M13.2362 56.1073L4.5673 53.9063L5.57687 49.9321C5.9597 48.4251 7.32774 47.6225 8.8348 48.0051C10.0218 48.3065 10.7826 49.2237 10.8551 50.3352L14.9437 49.3858L14.6117 50.6928L10.6904 51.5427L10.0399 54.1033L13.5208 54.9871L13.2362 56.1073ZM8.99963 53.8392L9.69753 51.0919C9.92113 50.2117 9.44357 49.409 8.55001 49.1821C7.65644 48.9552 6.84709 49.4028 6.63027 50.2563L5.91882 53.057L8.99963 53.8392Z" fill="black" fill-opacity="0.3"/>
<path d="M17.7865 42.8567L17.4194 43.7472L16.2856 43.4289C16.9081 44.0128 17.0687 45.0314 16.6701 45.9982C16.088 47.4103 14.5563 47.9847 13.0424 47.3609L9.14932 45.7569L9.56886 44.7392L13.3601 46.3013C14.327 46.6996 15.2965 46.3698 15.6898 45.4157C16.1041 44.4107 15.6899 43.2132 14.4812 42.7152L10.9953 41.2789L11.4149 40.2612L16.5038 42.358L17.7865 42.8567Z" fill="black" fill-opacity="0.3"/>
<path d="M17.0609 39.4867C17.8396 39.8716 18.7952 39.4534 19.2692 38.6307C19.6539 37.963 19.5847 37.2563 19.0839 36.9679C17.7246 36.1851 16.2755 40.0506 14.1888 38.8489C13.1394 38.2447 13.1098 36.9732 13.7898 35.7928C14.4974 34.5648 15.6992 34.0501 16.7167 34.4614L16.402 35.614C15.804 35.3014 15.0707 35.6095 14.6722 36.301C14.3288 36.8971 14.3503 37.5764 14.8272 37.8511C16.115 38.5927 17.6017 34.717 19.6884 35.9187C20.7378 36.523 20.9174 37.8649 20.1343 39.2241C19.3168 40.6429 17.8996 41.2559 16.7426 40.7007L17.0609 39.4867Z" fill="black" fill-opacity="0.3"/>
<path d="M22.3014 28.8243C21.4497 28.1712 20.411 28.2591 19.7828 29.0779C19.0877 29.984 19.2632 31.315 20.3005 32.1105L23.2269 34.3544L22.5569 35.2278L15.1317 29.5342L15.8017 28.6608L18.6735 30.8629C18.2303 30.1069 18.3733 29.1068 19.0098 28.277C19.9562 27.0434 21.5847 26.8875 22.9059 27.9007L26.2254 30.446L25.5553 31.3194L22.3014 28.8243Z" fill="black" fill-opacity="0.3"/>
<path d="M28.2632 22.9028L31.9405 19.8358L32.6282 20.6598L28.9509 23.7268L28.2632 22.9028Z" fill="black" fill-opacity="0.3"/>
<path d="M40.1402 19.3479L39.2411 9.77809L40.3214 9.23112L47.5059 15.6186L46.3274 16.2153L44.4105 14.4714L41.0346 16.1806L41.3187 18.7512L40.1402 19.3479ZM40.9054 15.0122L43.5325 13.682L40.4407 10.8673L40.9054 15.0122Z" fill="black" fill-opacity="0.3"/>
<path d="M48.4352 15.5379L46.1249 9.05743L47.0063 8.74337L47.5194 9.77295C47.5625 8.91037 48.0137 8.20912 48.7655 7.94125C49.0247 7.84888 49.2941 7.82593 49.5468 7.83815L49.9293 9.07495C49.6146 9.01179 49.285 9.07079 49.0777 9.14469C48.1703 9.46798 47.781 10.4247 48.1414 11.4357L49.4722 15.1684L48.4352 15.5379Z" fill="black" fill-opacity="0.3"/>
<path d="M57.6344 15.9484C56.008 16.3051 54.4457 15.6053 53.9433 14.2786L55.0553 13.6966C55.3962 14.608 56.371 15.0703 57.4463 14.8345C58.6694 14.5663 59.3572 13.5279 59.1006 12.3586L58.8883 11.3909C58.5187 12.2749 57.7887 12.9281 56.7672 13.1521C55.0199 13.5353 53.2646 12.4694 52.8163 10.4265C52.3768 8.42387 53.4964 6.65691 55.3109 6.25896C56.3458 6.03197 57.2853 6.33306 57.9671 7.00057L57.8194 5.87784L58.7602 5.67149L60.1523 12.0153C60.5652 13.8969 59.516 15.5357 57.6344 15.9484ZM53.9453 10.1788C54.252 11.5766 55.414 12.3783 56.7043 12.0953C57.9946 11.8123 58.7142 10.598 58.4075 9.20017C58.1008 7.80239 56.9388 7.00072 55.6485 7.28371C54.3582 7.5667 53.6385 8.78106 53.9453 10.1788Z" fill="black" fill-opacity="0.3"/>
<path d="M65.0687 12.254C63.0927 12.4 61.6099 11.0056 61.4568 8.93347C61.3016 6.83392 62.5613 5.20936 64.4825 5.06747C66.4586 4.92152 67.8387 6.4201 68.0009 8.61571C68.005 8.6706 68.01 8.73922 68.0044 8.85001L62.6938 9.24224C62.9487 10.4514 63.8624 11.2393 64.9876 11.1562C65.8933 11.0893 66.6741 10.4522 66.7799 9.64412L68.0434 9.93713C67.8307 11.167 66.6057 12.1405 65.0687 12.254ZM62.6421 8.16985L66.7589 7.8658C66.4501 6.67443 65.4947 6.06891 64.5067 6.14188C63.4912 6.21688 62.7648 7.0294 62.6421 8.16985Z" fill="black" fill-opacity="0.3"/>
<path d="M74.9246 8.24695C74.9924 7.17582 74.3407 6.36248 73.3108 6.29731C72.171 6.22519 71.1634 7.11278 71.0808 8.41736L70.8478 12.0977L69.7492 12.0282L70.1839 5.16191L71.1177 5.221L71.1888 6.49394C71.5998 5.66512 72.4465 5.13962 73.5451 5.20914C75.0969 5.30733 76.1336 6.57244 76.0284 8.23407L75.7641 12.4088L74.6655 12.3392L74.9246 8.24695Z" fill="black" fill-opacity="0.3"/>
<path d="M77.8113 6.99163L78.0081 5.93655L78.4409 6.01725C78.8603 6.09542 79.237 5.80173 79.3278 5.31476L79.4943 4.422L80.5224 4.61365L80.1994 6.34507L81.6874 6.62247L81.4906 7.67755L80.0026 7.40016L79.2709 11.3229C79.1776 11.8234 79.4797 12.2296 80.0344 12.333C80.2237 12.3683 80.4452 12.3816 80.6176 12.3578L80.4428 13.445C80.2138 13.4723 79.9222 13.4599 79.6651 13.412C78.5695 13.2077 77.9542 12.3791 78.1484 11.3376L78.9205 7.19842L77.8113 6.99163Z" fill="black" fill-opacity="0.3"/>
<path d="M89.299 11.8338L93.7284 13.653L93.3205 14.6457L88.891 12.8266L89.299 11.8338Z" fill="black" fill-opacity="0.3"/>
<path d="M101.773 23.5673C99.7252 22.1013 99.3752 19.4475 100.938 17.2663C102.501 15.0851 105.126 14.5621 107.174 16.0281C109.221 17.4941 109.571 20.1479 108.008 22.3291C106.446 24.5103 103.82 25.0333 101.773 23.5673ZM101.922 17.9712C100.744 19.6155 100.969 21.5702 102.446 22.6277C103.922 23.6851 105.846 23.2685 107.024 21.6242C108.21 19.9687 107.993 18.0028 106.517 16.9454C105.04 15.8879 103.108 16.3157 101.922 17.9712Z" fill="black" fill-opacity="0.3"/>
<path d="M112.117 19.847L112.928 20.5914L106.599 27.4832L105.788 26.7389L112.117 19.847Z" fill="black" fill-opacity="0.3"/>
<path d="M113.623 24.7454L114.478 25.7154L111.844 30.7164L117.045 28.6252L117.883 29.5745L109.977 32.5098C108.869 32.918 107.831 32.8237 107.13 32.1948L107.797 31.2034C108.238 31.621 108.775 31.7716 109.414 31.5387L110.412 31.1724L113.623 24.7454Z" fill="black" fill-opacity="0.3"/>
<path d="M121.816 40.6396C122.708 40.0679 122.988 39.1532 122.491 38.3771C121.926 37.4967 120.681 37.314 119.581 38.0193L116.499 39.9941L115.912 39.079L119.341 36.8814C120.245 36.3024 120.56 35.3653 120.04 34.5545C119.468 33.6626 118.216 33.4682 117.115 34.1735L114.033 36.1483L113.439 35.2216L119.232 31.5096L119.707 32.2509L118.803 33.059C119.643 32.8642 120.552 33.2623 121.079 34.0847C121.636 34.9535 121.568 35.9942 120.976 36.8308C121.901 36.565 122.965 37.027 123.545 37.9305C124.362 39.2047 123.801 40.6754 122.503 41.5069L118.935 43.7935L118.341 42.8668L121.816 40.6396Z" fill="black" fill-opacity="0.3"/>
<path d="M119.785 47.236C119.377 46.2883 119.494 45.3089 120.04 44.4895L116.451 46.0351L116.015 45.0241L124.862 41.2145L125.232 42.0738L124.225 42.6574C125.19 42.811 125.983 43.3986 126.408 44.3843C127.137 46.0776 126.338 47.9796 124.418 48.8069C122.433 49.6613 120.488 48.8662 119.785 47.236ZM122.127 43.5608C120.788 44.1377 120.208 45.4359 120.731 46.649C121.254 47.8622 122.595 48.3331 123.935 47.7563C125.287 47.1739 125.879 45.8703 125.356 44.6571C124.834 43.444 123.48 42.9785 122.127 43.5608Z" fill="black" fill-opacity="0.3"/>
<path d="M128.173 49.9632L128.483 51.0194L121.882 52.9571L121.571 51.9009L128.173 49.9632ZM129.778 49.1767C130.266 49.0333 130.723 49.272 130.863 49.7472C131.003 50.2225 130.747 50.6704 130.258 50.8138C129.77 50.9572 129.313 50.7186 129.173 50.2433C129.033 49.768 129.289 49.3201 129.778 49.1767Z" fill="black" fill-opacity="0.3"/>
<path d="M126.204 62.4753C124.698 62.4821 123.444 61.3567 123.174 59.7835C122.856 57.9255 124.026 56.2032 126.156 55.8385C128.244 55.4807 129.955 56.6674 130.272 58.5119C130.534 60.0444 129.747 61.4776 128.41 61.9858L127.826 60.8574C128.783 60.5816 129.383 59.6831 129.214 58.6931C129.009 57.4996 127.82 56.7539 126.356 57.0048C124.864 57.2604 124.045 58.3499 124.25 59.5434C124.426 60.5741 125.271 61.267 126.37 61.1626L126.204 62.4753Z" fill="black" fill-opacity="0.3"/>
<path d="M123.964 69.7267L132.88 70.4222L132.746 72.1507L125.227 74.4074L132.309 77.7478L132.178 79.4214L123.261 78.7259L123.351 77.5735L130.485 78.13L123.592 74.8457L123.682 73.6934L131.007 71.4355L123.874 70.879L123.964 69.7267Z" fill="black" fill-opacity="0.3"/>
<path d="M122.009 81.9145C122.462 79.9855 124.236 78.9887 126.259 79.4635C128.309 79.9446 129.481 81.6332 129.041 83.5086C128.588 85.4375 126.744 86.3052 124.601 85.8021C124.547 85.7895 124.48 85.7738 124.376 85.7352L125.594 80.5511C124.364 80.432 123.338 81.0676 123.08 82.166C122.873 83.0501 123.247 83.9859 123.986 84.3291L123.328 85.4466C122.218 84.8752 121.656 83.4148 122.009 81.9145ZM126.632 80.8232L125.689 84.8419C126.918 84.9042 127.782 84.1742 128.008 83.2097C128.241 82.2185 127.684 81.282 126.632 80.8232Z" fill="black" fill-opacity="0.3"/>
<path d="M119.599 89.1444C120.291 87.3761 122.314 86.5862 124.21 87.3279C126.094 88.0645 127.021 89.9634 126.334 91.719C125.963 92.6672 125.234 93.2835 124.316 93.5155L127.61 94.8033L127.209 95.8285L119.776 92.9221L118.484 92.4466L118.825 91.5752L119.913 91.853C119.348 91.0704 119.223 90.1055 119.599 89.1444ZM123.764 88.3943C122.418 87.8681 121.075 88.3921 120.584 89.6478C120.098 90.8908 120.718 92.138 122.089 92.6742C123.46 93.2104 124.803 92.6864 125.295 91.4306C125.776 90.2005 125.135 88.9304 123.764 88.3943Z" fill="black" fill-opacity="0.3"/>
<path d="M118.42 99.1727C118.431 99.0685 118.494 98.899 118.552 98.7107L119.15 96.9643C119.364 96.3274 119.165 95.8378 118.721 95.5894C118.252 95.3275 117.713 95.5306 117.337 96.2031C116.78 97.1999 117.074 98.4208 118.035 98.9579L118.42 99.1727ZM119.312 94.5325C120.177 95.0159 120.467 95.9347 120.053 97.1538L119.355 99.1912C119.264 99.4395 119.308 99.6695 119.477 99.7635L119.525 99.7903C120.281 100.213 121.131 99.963 121.561 99.1943C122.004 98.4017 121.699 97.5376 120.871 97.0436L121.631 96.0808C122.801 96.8924 123.157 98.3686 122.439 99.6537C121.714 100.951 120.297 101.483 118.987 100.751L116.201 99.1936L114.986 98.5463L115.429 97.7537L116.502 98.148C116 97.4104 115.97 96.4481 116.508 95.4873C117.152 94.3344 118.303 93.9686 119.312 94.5325Z" fill="black" fill-opacity="0.3"/>
<path d="M121.331 105.636L120.696 106.535L113.053 101.136L113.689 100.237L121.331 105.636Z" fill="black" fill-opacity="0.3"/>
<path d="M107.35 107.772L113.414 114.346L110.4 117.126C109.257 118.18 107.672 118.106 106.618 116.963C105.787 116.063 105.65 114.879 106.196 113.908L102.251 112.473L103.243 111.559L106.993 112.986L108.935 111.196L106.5 108.556L107.35 107.772ZM109.663 111.985L107.579 113.906C106.911 114.522 106.874 115.455 107.499 116.132C108.124 116.81 109.046 116.876 109.694 116.28L111.818 114.321L109.663 111.985Z" fill="black" fill-opacity="0.3"/>
<path d="M96.3058 116.394L97.0993 115.848L97.8759 116.734C97.6727 115.905 98.094 114.963 98.9555 114.371C100.214 113.505 101.811 113.859 102.739 115.208L105.127 118.676L104.22 119.3L101.895 115.923C101.302 115.061 100.309 114.809 99.4592 115.394C98.5637 116.01 98.2574 117.239 98.9986 118.316L101.136 121.422L100.23 122.046L97.1087 117.512L96.3058 116.394Z" fill="black" fill-opacity="0.3"/>
<path d="M95.0743 119.615C94.6318 118.868 93.6027 118.697 92.7567 119.128C92.07 119.477 91.7424 120.107 92.0047 120.622C92.7168 122.02 96.0402 119.571 97.1333 121.717C97.683 122.796 97.0141 123.877 95.8002 124.495C94.5372 125.139 93.2493 124.914 92.6209 124.014L93.5135 123.22C93.8441 123.808 94.6268 123.95 95.338 123.588C95.9511 123.276 96.3037 122.695 96.0538 122.205C95.3792 120.88 92.0187 123.317 90.9257 121.172C90.376 120.093 90.9577 118.87 92.3555 118.158C93.8147 117.415 95.3368 117.675 96.0035 118.771L95.0743 119.615Z" fill="black" fill-opacity="0.3"/>
<path d="M84.8644 125.692C85.2218 126.704 86.1402 127.197 87.1133 126.854C88.1903 126.473 88.7695 125.262 88.3342 124.03L87.1062 120.552L88.1442 120.186L91.26 129.009L90.2219 129.375L89.0169 125.963C88.9758 126.838 88.3103 127.598 87.3242 127.946C85.858 128.464 84.4083 127.706 83.8539 126.136L82.461 122.192L83.499 121.826L84.8644 125.692Z" fill="black" fill-opacity="0.3"/>
<path d="M76.636 127.403L71.8809 127.967L71.7543 126.901L76.5094 126.337L76.636 127.403Z" fill="black" fill-opacity="0.3"/>
</svg>
