<svg width="136" height="136" viewBox="0 0 136 136" fill="none" xmlns="http://www.w3.org/2000/svg">
<path d="M63.8251 123.609C66.34 123.734 68.0707 125.777 67.9374 128.457C67.8041 131.137 65.8792 132.997 63.3642 132.872C60.8492 132.747 59.1185 130.704 59.2518 128.024C59.3852 125.344 61.3101 123.484 63.8251 123.609ZM66.728 128.396C66.8285 126.376 65.5817 124.854 63.7676 124.764C61.9536 124.673 60.5617 126.064 60.4612 128.085C60.36 130.118 61.6062 131.655 63.4203 131.745C65.2343 131.835 66.6268 130.43 66.728 128.396Z" fill="black" fill-opacity="0.3"/>
<path d="M56.2719 132.213L55.1892 132.014L56.8792 122.811L57.9618 123.01L56.2719 132.213Z" fill="black" fill-opacity="0.3"/>
<path d="M51.9175 128.755L50.6804 128.377L50.302 122.736L46.9694 127.243L45.7587 126.873L50.9521 120.23C51.6814 119.302 52.6141 118.839 53.5411 119.007L53.4932 120.201C52.8981 120.076 52.3622 120.229 51.9405 120.762L51.2828 121.597L51.9175 128.755Z" fill="black" fill-opacity="0.3"/>
<path d="M36.0195 119.16C35.5467 120.109 35.7752 121.038 36.6002 121.449C37.5359 121.916 38.6984 121.435 39.2818 120.265L40.9153 116.99L41.888 117.475L40.0702 121.12C39.5912 122.081 39.8013 123.047 40.6632 123.477C41.6112 123.95 42.786 123.475 43.3694 122.305L45.003 119.03L45.988 119.521L42.9174 125.678L42.1294 125.285L42.4913 124.128C41.8704 124.725 40.886 124.849 40.0119 124.413C39.0885 123.952 38.6138 123.023 38.6928 122.001C38.0351 122.704 36.8846 122.852 35.9242 122.373C34.5699 121.697 34.2976 120.147 34.9854 118.767L36.8769 114.975L37.8619 115.466L36.0195 119.16Z" fill="black" fill-opacity="0.3"/>
<path d="M33.6552 111.958C34.4825 112.575 34.8705 113.482 34.8074 114.465L37.1425 111.332L38.025 111.99L32.2694 119.713L31.5193 119.154L32.0996 118.145C31.1871 118.494 30.2072 118.381 29.3468 117.74C27.8686 116.638 27.6094 114.591 28.8591 112.914C30.15 111.181 32.2322 110.897 33.6552 111.958ZM33.4645 116.313C34.3361 115.144 34.1888 113.729 33.1298 112.94C32.0708 112.15 30.6738 112.413 29.8022 113.582C28.9224 114.763 29.0615 116.188 30.1205 116.978C31.1795 117.767 32.5848 117.494 33.4645 116.313Z" fill="black" fill-opacity="0.3"/>
<path d="M24.4296 113.256L23.6414 112.488L28.4424 107.56L29.2307 108.328L24.4296 113.256ZM23.4173 114.729C23.062 115.094 22.5466 115.11 22.1919 114.764C21.8372 114.419 21.8402 113.903 22.1955 113.538C22.5508 113.174 23.0662 113.157 23.421 113.503C23.7757 113.849 23.7726 114.365 23.4173 114.729Z" fill="black" fill-opacity="0.3"/>
<path d="M19.7218 100.977C21.0387 100.246 22.6793 100.628 23.6729 101.877C24.8465 103.353 24.6497 105.426 22.9594 106.771C21.3014 108.091 19.2306 107.875 18.0656 106.411C17.0977 105.194 17.0978 103.558 18.0246 102.469L19.0799 103.176C18.3732 103.88 18.2801 104.956 18.9054 105.742C19.6592 106.69 21.0599 106.771 22.2227 105.845C23.407 104.903 23.5997 103.554 22.8459 102.606C22.1949 101.788 21.1211 101.587 20.2084 102.208L19.7218 100.977Z" fill="black" fill-opacity="0.3"/>
<path d="M17.6309 92.5364L9.40198 96.0407L8.723 94.4454L14.348 88.9692L6.5244 89.2798L5.86698 87.7351L14.0959 84.2309L14.5486 85.2944L7.96542 88.0978L15.5956 87.8247L16.0482 88.8882L10.5951 94.2763L17.1783 91.4729L17.6309 92.5364Z" fill="black" fill-opacity="0.3"/>
<path d="M13.5054 80.0249C13.9688 81.9514 12.8324 83.6402 10.8124 84.1264C8.76554 84.6191 6.95876 83.6387 6.50819 81.7657C6.04475 79.8392 7.3005 78.2349 9.44097 77.7197C9.49449 77.7068 9.56138 77.6907 9.67162 77.6783L10.9171 82.8557C12.0691 82.4086 12.699 81.3795 12.4351 80.2825C12.2227 79.3995 11.4677 78.7321 10.6532 78.7583L10.7381 77.4641C11.9862 77.4751 13.1449 78.5265 13.5054 80.0249ZM9.8672 83.0801L8.9017 79.0666C7.77593 79.5641 7.33282 80.6048 7.56454 81.568C7.8027 82.558 8.72193 83.1435 9.8672 83.0801Z" fill="black" fill-opacity="0.3"/>
<path d="M12.3239 71.8108C12.478 73.7034 11.0065 75.3004 8.97679 75.4658C6.96075 75.63 5.29488 74.3299 5.14191 72.451C5.05928 71.4361 5.44375 70.5627 6.1671 69.9515L2.64246 70.2387L2.55313 69.1415L10.5076 68.4935L11.8768 68.3544L11.9527 69.287L10.853 69.5146C11.7046 69.9698 12.2401 70.7822 12.3239 71.8108ZM8.91043 74.3115C10.3505 74.1942 11.3272 73.1345 11.2178 71.7904C11.1095 70.4601 10.0049 69.6113 8.53749 69.7308C7.07003 69.8504 6.09328 70.9101 6.20271 72.2542C6.3099 73.5708 7.44297 74.4311 8.91043 74.3115Z" fill="black" fill-opacity="0.3"/>
<path d="M9.02901 61.5121C9.06366 61.611 9.07898 61.7913 9.10711 61.9863L9.31341 63.8208C9.39217 64.4882 9.78163 64.8457 10.2896 64.8802C10.825 64.9166 11.2255 64.5025 11.2778 63.7338C11.3552 62.5943 10.5666 61.6166 9.46831 61.5419L9.02901 61.5121ZM10.2075 66.0883C9.21902 66.0211 8.56367 65.3145 8.41614 64.0356L8.17545 61.8953C8.15199 61.6317 8.01311 61.443 7.82092 61.4299L7.766 61.4262C6.90112 61.3673 6.24042 61.9568 6.1807 62.8354C6.11912 63.7415 6.76447 64.3922 7.72359 64.4851L7.44927 65.6801C6.04459 65.4466 5.09056 64.2646 5.1904 62.7957C5.29118 61.313 6.34427 60.2261 7.84065 60.3279L11.0256 60.5445L12.4003 60.6104L12.3387 61.5165L11.2009 61.6184C11.9701 62.0707 12.4083 62.928 12.3336 64.0262C12.2441 65.3442 11.3606 66.1667 10.2075 66.0883Z" fill="black" fill-opacity="0.3"/>
<path d="M3.73885 56.2082L3.9387 55.1257L13.1398 56.8253L12.94 57.9078L3.73885 56.2082Z" fill="black" fill-opacity="0.3"/>
<path d="M15.832 47.5662L7.63697 43.9833L9.27885 40.2259C9.90144 38.8011 11.3815 38.2317 12.8062 38.8546C13.9283 39.3452 14.5298 40.3741 14.4208 41.4828L18.6088 41.2113L18.0689 42.447L14.062 42.6475L13.0042 45.0684L16.2948 46.507L15.832 47.5662ZM12.0208 44.6384L13.1558 42.041C13.5194 41.2088 13.1787 40.339 12.334 39.9697C11.4893 39.6004 10.618 39.9103 10.2654 40.7173L9.1084 43.3651L12.0208 44.6384Z" fill="black" fill-opacity="0.3"/>
<path d="M22.8764 34.6208L22.3592 35.4333L21.2988 34.9212C21.8094 35.6052 21.7892 36.6364 21.2277 37.5186C20.4076 38.8071 18.7993 39.1043 17.4182 38.2248L13.8667 35.963L14.4578 35.0344L17.9164 37.237C18.7985 37.7987 19.8105 37.6439 20.3646 36.7733C20.9483 35.8562 20.7501 34.6044 19.6475 33.9022L16.4674 31.877L17.0585 30.9483L21.701 33.9049L22.8764 34.6208Z" fill="black" fill-opacity="0.3"/>
<path d="M23.18 30.6121C23.8731 31.1358 24.8897 30.9032 25.5087 30.1833C26.0111 29.5991 26.075 28.8916 25.6369 28.5147C24.4478 27.4917 22.3034 31.0196 20.478 29.4491C19.5601 28.6594 19.7682 27.4044 20.6564 26.3715C21.5804 25.2969 22.8568 25.0155 23.7795 25.6097L23.2554 26.6835C22.7263 26.2647 21.9486 26.4305 21.4282 27.0356C20.9797 27.5573 20.8741 28.2288 21.2913 28.5877C22.4178 29.557 24.6011 26.0261 26.4264 27.5966C27.3443 28.3864 27.2704 29.7386 26.2477 30.928C25.18 32.1695 23.6737 32.5072 22.6409 31.7456L23.18 30.6121Z" fill="black" fill-opacity="0.3"/>
<path d="M30.831 20.6753C30.1258 19.8662 29.0906 19.7466 28.3128 20.4249C27.4521 21.1755 27.3603 22.5153 28.2193 23.5007L30.6423 26.2806L29.8126 27.0041L23.6647 19.9506L24.4943 19.2271L26.8721 21.9551C26.5876 21.1261 26.9258 20.1739 27.714 19.4865C28.8859 18.4646 30.5124 18.6345 31.6064 19.8896L34.3549 23.0429L33.5252 23.7664L30.831 20.6753Z" fill="black" fill-opacity="0.3"/>
<path d="M38.8912 15.408L43.1469 13.2128L43.6387 14.1668L39.383 16.3619L38.8912 15.408Z" fill="black" fill-opacity="0.3"/>
<path d="M56.9202 13.2645C54.4649 13.8233 52.2471 12.3241 51.652 9.70775C51.0569 7.09138 52.4079 4.78001 54.8632 4.22122C57.3185 3.66243 59.5364 5.16157 60.1315 7.77794C60.7266 10.3943 59.3755 12.7057 56.9202 13.2645ZM52.8327 9.43904C53.2813 11.4114 54.8928 12.5405 56.6639 12.1374C58.4349 11.7343 59.3994 10.019 58.9508 8.04664C58.4991 6.06089 56.8845 4.91837 55.1135 5.32144C53.3425 5.7245 52.381 7.45328 52.8327 9.43904Z" fill="black" fill-opacity="0.3"/>
<path d="M62.5636 12.2657L62.0119 5.40787L62.9445 5.33278L63.1733 6.46014C63.4384 5.63813 64.056 5.07765 64.8515 5.01361C65.1258 4.99153 65.3919 5.03913 65.6328 5.11637L65.6817 6.41006C65.3941 6.26755 65.0605 6.23919 64.8411 6.25686C63.881 6.33415 63.257 7.15743 63.3431 8.22726L63.6609 12.1774L62.5636 12.2657Z" fill="black" fill-opacity="0.3"/>
<path d="M74.8004 8.29056L79.5397 8.97509L79.3863 10.0374L74.647 9.35283L74.8004 8.29056Z" fill="black" fill-opacity="0.3"/>
<path d="M90.7229 17.017C88.3996 16.0459 87.4642 13.5372 88.4985 11.0614C89.5328 8.58551 91.9744 7.48834 94.2978 8.45941C96.6211 9.43048 97.5564 11.9392 96.5221 14.415C95.4879 16.8909 93.0462 17.988 90.7229 17.017ZM89.6157 11.5283C88.836 13.3947 89.4926 15.25 91.1684 15.9504C92.8442 16.6509 94.6252 15.8145 95.4049 13.948C96.1899 12.0689 95.5387 10.201 93.8628 9.50054C92.187 8.80009 90.4007 9.64922 89.6157 11.5283Z" fill="black" fill-opacity="0.3"/>
<path d="M100.746 11.4861L101.697 12.0406L96.9864 20.1249L96.0355 19.5704L100.746 11.4861Z" fill="black" fill-opacity="0.3"/>
<path d="M103.669 16.2168L104.705 16.9919L103.148 22.4266L107.811 19.3173L108.825 20.0759L101.686 24.5639C100.685 25.1896 99.6507 25.309 98.8357 24.8364L99.2858 23.7295C99.8035 24.0483 100.359 24.0863 100.937 23.7279L101.839 23.1655L103.669 16.2168Z" fill="black" fill-opacity="0.3"/>
<path d="M115.371 30.636C116.137 29.9044 116.237 28.9528 115.601 28.2858C114.879 27.5291 113.622 27.5873 112.677 28.4898L110.029 31.017L109.279 30.2304L112.225 27.4183C113.001 26.6772 113.131 25.6972 112.467 25.0002C111.735 24.2336 110.469 24.2818 109.523 25.1844L106.876 27.7115L106.116 26.915L111.093 22.1647L111.701 22.8019L110.968 23.7679C111.754 23.4164 112.722 23.6337 113.397 24.3406C114.109 25.0874 114.241 26.1222 113.82 27.0565C114.676 26.6191 115.809 26.8695 116.55 27.6461C117.595 28.7413 117.325 30.2924 116.21 31.3565L113.144 34.2826L112.385 33.4861L115.371 30.636Z" fill="black" fill-opacity="0.3"/>
<path d="M115.152 38.2139C114.583 37.353 114.526 36.368 114.919 35.4649L111.659 37.6205L111.052 36.7021L119.086 31.3891L119.602 32.1697L118.714 32.9221C119.691 32.9029 120.574 33.3414 121.166 34.2368C122.183 35.775 121.732 37.7885 119.988 38.9422C118.186 40.1338 116.131 39.6947 115.152 38.2139ZM116.809 34.182C115.592 34.9866 115.251 36.3669 115.979 37.4689C116.708 38.571 118.111 38.7977 119.328 37.9931C120.556 37.181 120.908 35.793 120.18 34.691C119.452 33.589 118.037 33.3699 116.809 34.182Z" fill="black" fill-opacity="0.3"/>
<path d="M124.271 40.1228L124.752 41.113L118.564 44.12L118.083 43.1298L124.271 40.1228ZM125.723 39.0807C126.181 38.8582 126.672 39.0177 126.888 39.4633C127.105 39.9089 126.927 40.393 126.469 40.6156C126.011 40.8381 125.52 40.6786 125.304 40.233C125.088 39.7875 125.265 39.3033 125.723 39.0807Z" fill="black" fill-opacity="0.3"/>
<path d="M124.535 53.2707C123.048 53.5121 121.635 52.5957 121.124 51.0836C120.52 49.2978 121.408 47.414 123.455 46.722C125.462 46.0431 127.337 46.9488 127.936 48.7217C128.434 50.1947 127.879 51.7332 126.638 52.4435L125.885 51.4198C126.788 50.9981 127.241 50.0171 126.92 49.0655C126.532 47.9184 125.242 47.367 123.834 47.843C122.4 48.3279 121.761 49.5317 122.149 50.6788C122.484 51.6695 123.426 52.2225 124.495 51.948L124.535 53.2707Z" fill="black" fill-opacity="0.3"/>
<path d="M123.64 61.9208L132.57 61.4164L132.668 63.1474L125.519 66.3903L132.984 68.7525L133.079 70.4286L124.149 70.933L124.084 69.779L131.228 69.3754L123.957 67.0435L123.892 65.8895L130.849 62.6712L123.706 63.0748L123.64 61.9208Z" fill="black" fill-opacity="0.3"/>
<path d="M123.28 75.0905C123.497 73.121 125.139 71.9179 127.204 72.146C129.296 72.377 130.664 73.9123 130.452 75.8271C130.235 77.7966 128.51 78.8797 126.321 78.6381C126.267 78.632 126.198 78.6245 126.09 78.5987L126.674 73.3057C125.439 73.3355 124.497 74.0898 124.374 75.2113C124.274 76.114 124.758 76.998 125.533 77.2497L125.014 78.4384C123.844 78.0046 123.11 76.6223 123.28 75.0905ZM127.738 73.4509L127.285 77.554C128.513 77.468 129.283 76.6393 129.391 75.6546C129.503 74.6425 128.837 73.7799 127.738 73.4509Z" fill="black" fill-opacity="0.3"/>
<path d="M121.605 83.2185C122.102 81.3858 124.028 80.3826 125.994 80.9158C127.946 81.4453 129.072 83.2336 128.579 85.053C128.312 86.0358 127.654 86.727 126.767 87.0565L130.18 87.9823L129.892 89.0448L122.189 86.9554L120.854 86.6217L121.099 85.7186L122.21 85.8776C121.564 85.1604 121.335 84.2145 121.605 83.2185ZM125.665 82.0241C124.27 81.6459 122.992 82.3114 122.639 83.6129C122.29 84.9011 123.041 86.0744 124.462 86.4598C125.883 86.8453 127.161 86.1798 127.514 84.8783C127.86 83.6033 127.085 82.4096 125.665 82.0241Z" fill="black" fill-opacity="0.3"/>
<path d="M121.213 94.0247C121.214 93.9199 121.26 93.745 121.3 93.552L121.728 91.7562C121.88 91.1017 121.635 90.6332 121.169 90.4284C120.678 90.2125 120.161 90.4661 119.851 91.1717C119.392 92.2173 119.802 93.4046 120.81 93.8475L121.213 94.0247ZM121.656 89.3197C122.563 89.7183 122.94 90.6054 122.645 91.8585L122.146 93.9537C122.078 94.2097 122.145 94.4343 122.321 94.5119L122.372 94.534C123.165 94.8828 123.987 94.5524 124.341 93.7461C124.706 92.9146 124.32 92.0835 123.449 91.6707L124.112 90.6396C125.354 91.3358 125.851 92.7715 125.259 94.1195C124.661 95.4801 123.302 96.1453 121.929 95.5419L119.006 94.2575L117.736 93.7291L118.101 92.8976L119.206 93.1878C118.636 92.5013 118.514 91.5461 118.957 90.5383C119.488 89.3288 120.598 88.8547 121.656 89.3197Z" fill="black" fill-opacity="0.3"/>
<path d="M124.39 100.809L123.835 101.759L115.756 97.0387L116.311 96.0882L124.39 100.809Z" fill="black" fill-opacity="0.3"/>
<path d="M110.084 104.836L116.577 110.987L113.758 113.964C112.689 115.094 111.104 115.127 109.975 114.058C109.086 113.216 108.869 112.044 109.348 111.038L105.316 109.872L106.243 108.893L110.08 110.064L111.897 108.145L109.289 105.675L110.084 104.836ZM112.676 108.883L110.727 110.942C110.103 111.601 110.128 112.535 110.798 113.169C111.467 113.803 112.392 113.807 112.997 113.167L114.984 111.069L112.676 108.883Z" fill="black" fill-opacity="0.3"/>
<path d="M99.067 114.624L99.8291 114.035L100.653 114.877C100.405 114.06 100.773 113.097 101.601 112.457C102.809 111.523 104.423 111.789 105.424 113.085L107.998 116.418L107.127 117.091L104.62 113.845C103.981 113.018 102.977 112.82 102.16 113.451C101.3 114.116 101.062 115.361 101.861 116.395L104.165 119.379L103.294 120.052L99.9298 115.696L99.067 114.624Z" fill="black" fill-opacity="0.3"/>
<path d="M97.4218 118.292C96.9474 117.564 95.9122 117.438 95.0856 117.905C94.4148 118.284 94.1148 118.928 94.399 119.431C95.1706 120.797 98.3847 118.206 99.5691 120.302C100.165 121.357 99.5433 122.467 98.3574 123.137C97.1236 123.834 95.8274 123.666 95.161 122.794L96.0183 121.962C96.3739 122.535 97.1618 122.643 97.8566 122.25C98.4555 121.912 98.7826 121.316 98.5119 120.837C97.7809 119.543 94.5294 122.124 93.3449 120.027C92.7493 118.973 93.2775 117.726 94.6431 116.954C96.0686 116.148 97.6002 116.342 98.3135 117.408L97.4218 118.292Z" fill="black" fill-opacity="0.3"/>
<path d="M86.8543 125.043C87.2432 126.044 88.1765 126.507 89.1383 126.133C90.2026 125.719 90.7434 124.49 90.2696 123.271L88.9331 119.835L89.959 119.435L93.3501 128.156L92.3242 128.555L91.0127 125.182C90.9991 126.059 90.3579 126.84 89.3834 127.219C87.9343 127.783 86.4617 127.071 85.8583 125.519L84.3423 121.621L85.3681 121.222L86.8543 125.043Z" fill="black" fill-opacity="0.3"/>
<path d="M77.4854 127.263L72.7374 127.884L72.5983 126.82L77.3463 126.199L77.4854 127.263Z" fill="black" fill-opacity="0.3"/>
</svg>
